#!OML:ASF F:\VICON\USERDATA\INSTALL\rory3\rory3.ASF
:FULLY-SPECIFIED
:DEGREES
52
root -0.40788 17.9148 -1.28136 5.86137 -2.54506 -6.38875
lowerback 15.0514 1.25735 7.9871
upperback -0.997685 3.39827 2.97114
thorax -9.2982 1.31137 -2.05886
lowerneck -21.1808 -4.30594 -0.751428
upperneck 8.89752 -5.77178 1.56038
head 6.16849 -2.68349 -0.0218568
rclavicle 2.6339e-014 2.22639e-014
rhumerus -27.7764 19.1012 -94.741
rradius 130.915
rwrist -22.0928
rhand -13.1956 36.4365
rfingers 7.12502
rthumb 12.9046 6.85546
lclavicle 2.6339e-014 2.22639e-014
lhumerus -64.5548 -8.62657 100.002
lradius 104.664
lwrist 34.5494
lhand -20.4052 1.18285
lfingers 7.12502
lthumb 5.94864 31.0793
rfemur 2.24941 6.76365 36.1007
rtibia 35.969
rfoot -8.94403 -11.4373
rtoes -20.2863
lfemur -45.5361 8.87257 -14.4718
ltibia 95.6231
lfoot -1.90453 -5.36548
ltoes -16.5622
53
root -0.387223 18.0214 -0.715868 5.63814 -2.15967 -6.26628
lowerback 14.8553 1.36044 8.32014
upperback -1.15304 3.56672 2.76628
thorax -9.3105 1.36601 -2.49599
lowerneck -20.4947 -4.4491 -0.638103
upperneck 8.77268 -5.99333 1.54093
head 6.01866 -2.79554 -0.054837
rclavicle 1.88845e-015 -1.03368e-014
rhumerus -27.8517 18.6153 -94.168
rradius 131.952
rwrist -20.2861
rhand -12.3839 39.7775
rfingers 7.12502
rthumb 13.6871 10.2476
lclavicle 1.88845e-015 -1.03368e-014
lhumerus -65.6601 -7.73534 99.7376
lradius 105.347
lwrist 33.5846
lhand -19.4956 2.30436
lfingers 7.12502
lthumb 6.82672 32.1743
rfemur 4.23791 6.28391 35.6718
rtibia 34.6424
rfoot -4.32444 -9.58015
rtoes -19.2341
lfemur -45.4103 7.72643 -14.9945
ltibia 91.9105
lfoot -2.71794 -4.55036
ltoes -12.4337
54
root -0.368218 18.1284 -0.143369 5.23474 -1.82548 -5.88764
lowerback 14.7833 1.48232 8.31633
upperback -1.20982 3.70384 2.54719
thorax -9.30246 1.42496 -2.75769
lowerneck -20.0686 -4.52672 -0.556895
upperneck 8.72119 -6.10861 1.4594
head 5.93078 -2.85961 -0.096265
rclavicle 3.08116e-015 1.90833e-014
rhumerus -28.2035 19.1957 -94.0742
rradius 133.088
rwrist -19.5953
rhand -12.8725 38.5302
rfingers 7.12502
rthumb 13.2161 8.96919
lclavicle 3.08116e-015 1.90833e-014
lhumerus -66.4873 -6.90063 99.4395
lradius 105.842
lwrist 33.4715
lhand -20.2402 3.43988
lfingers 7.12502
lthumb 6.10788 33.3318
rfemur 6.23009 5.72033 34.8781
rtibia 33.4044
rfoot 1.62481 -7.59306
rtoes -13.0946
lfemur -44.9665 6.51292 -15.7839
ltibia 87.8226
lfoot -2.95 -4.16482
ltoes -13.7516
55
root -0.350318 18.226 0.439062 4.89767 -1.44271 -5.66117
lowerback 14.4923 1.56594 8.41012
upperback -1.20815 3.78298 2.3766
thorax -9.107 1.46307 -2.99726
lowerneck -20.287 -4.57278 -0.457308
upperneck 9.30954 -6.20011 1.38929
head 6.15023 -2.89707 -0.15781
rclavicle -3.07122e-014 -4.92986e-014
rhumerus -28.3982 19.4934 -93.8794
rradius 133.619
rwrist -18.8358
rhand -12.175 40.6825
rfingers 7.12502
rthumb 13.8884 11.1662
lclavicle -3.07122e-014 -4.92986e-014
lhumerus -66.997 -6.03804 98.8876
lradius 106.089
lwrist 34.267
lhand -21.0262 3.75888
lfingers 7.12502
lthumb 5.34908 33.6714
rfemur 8.28475 5.09981 34.1871
rtibia 31.9713
rfoot 8.21648 -6.23867
rtoes -5.27331
lfemur -44.5358 5.25108 -16.3176
ltibia 83.2773
lfoot -2.7735 -4.1054
ltoes -15.8452
56
root -0.333491 18.3016 1.0096 4.66685 -0.961443 -5.26402
lowerback 14.1399 1.63514 8.2847
upperback -1.28309 3.80391 2.19614
thorax -8.97871 1.47961 -3.11117
lowerneck -20.1519 -4.65969 -0.585942
upperneck 9.68767 -6.31522 1.54129
head 6.26151 -2.94061 -0.104854
rclavicle -1.78906e-015 1.11319e-014
rhumerus -29.2494 20.6836 -94.0985
rradius 134.226
rwrist -14.3961
rhand -16.0575 36.8643
rfingers 7.12502
rthumb 10.1447 7.12888
lclavicle -1.78906e-015 1.11319e-014
lhumerus -67.537 -5.06167 98.2974
lradius 106.356
lwrist 34.8454
lhand -21.5225 3.05349
lfingers 7.12502
lthumb 4.86987 32.9775
rfemur 10.2489 4.60943 33.4281
rtibia 30.6608
rfoot 13.369 -5.6878
rtoes 0.135765
lfemur -43.4108 3.95307 -16.8695
ltibia 79.0886
lfoot -3.93118 -3.54976
ltoes -18.9545
57
root -0.324793 18.4483 1.60724 4.38086 -0.476136 -4.93334
lowerback 14.0708 1.69457 8.15285
upperback -1.46971 3.8548 2.05655
thorax -9.13687 1.49555 -3.19922
lowerneck -19.6176 -4.70513 -0.871598
upperneck 9.72865 -6.36015 1.9086
head 6.21254 -2.9458 0.0631198
rclavicle 3.12092e-014 7.15625e-015
rhumerus -29.6122 20.168 -93.2767
rradius 133.992
rwrist -17.0469
rhand -12.1504 40.5138
rfingers 7.12502
rthumb 13.9121 10.9992
lclavicle 3.12092e-014 7.15625e-015
lhumerus -68.3309 -4.06105 97.8599
lradius 106.858
lwrist 34.9042
lhand -22.2549 2.34779
lfingers 7.12502
lthumb 4.1626 32.2869
rfemur 12.2869 4.50417 32.963
rtibia 29.5323
rfoot 16.8588 -5.03786
rtoes 4.70043
lfemur -42.8111 2.57239 -17.3542
ltibia 73.3833
lfoot -2.70227 -4.03796
ltoes -15.7826
58
root -0.317236 18.5319 2.17756 4.2451 -0.13226 -4.8416
lowerback 13.8851 1.85607 8.22113
upperback -1.62277 4.06304 1.94751
thorax -9.16344 1.58457 -3.39041
lowerneck -19.3018 -4.85201 -0.837781
upperneck 9.73523 -6.57476 1.94932
head 6.16719 -3.04774 0.054255
rclavicle 1.18277e-014 1.35174e-014
rhumerus -30.3059 20.577 -92.9811
rradius 134.217
rwrist -16.0728
rhand -13.8432 36.9333
rfingers 7.12502
rthumb 12.2803 7.31389
lclavicle 1.18277e-014 1.35174e-014
lhumerus -69.0446 -3.37206 97.4266
lradius 107.429
lwrist 35.0816
lhand -22.2359 2.57756
lfingers 7.12502
lthumb 4.18094 32.5163
rfemur 13.7856 4.83435 32.9478
rtibia 29.0719
rfoot 19.2674 -4.11756
rtoes 10.7483
lfemur -41.9179 1.65472 -17.5493
ltibia 68.4031
lfoot -2.9522 -4.29721
ltoes -18.1633
59
root -0.310407 18.599 2.73771 4.49313 0.0684949 -4.6584
lowerback 13.282 2.06202 8.11691
upperback -1.79085 4.2525 1.7762
thorax -8.97195 1.68291 -3.52465
lowerneck -19.3219 -5.00646 -0.71412
upperneck 10.1429 -6.83734 2.01931
head 6.30384 -3.15759 0.0215957
rclavicle 4.87022e-015 -1.98785e-015
rhumerus -30.6398 20.5796 -92.5149
rradius 133.881
rwrist -16.8859
rhand -13.4595 36.3213
rfingers 7.12502
rthumb 12.6503 6.72441
lclavicle 4.87022e-015 -1.98785e-015
lhumerus -69.4849 -2.73515 96.8589
lradius 107.936
lwrist 35.3303
lhand -21.3999 3.10757
lfingers 7.12502
lthumb 4.98822 33.0289
rfemur 14.5376 5.56155 32.9372
rtibia 29.2583
rfoot 20.9438 -3.12609
rtoes 14.0049
lfemur -41.356 0.878809 -17.7945
ltibia 62.9746
lfoot -2.41456 -4.91914
ltoes -19.4815
60
root -0.303276 18.6524 3.29942 4.8315 0.337415 -4.29915
lowerback 12.6261 2.18929 7.72906
upperback -2.00171 4.29408 1.62309
thorax -8.83277 1.72216 -3.44929
lowerneck -19.4269 -4.99662 -0.812276
upperneck 10.7056 -6.85952 2.29501
head 6.51774 -3.13808 0.111078
rclavicle 2.0276e-014 4.77083e-015
rhumerus -30.8687 20.8845 -92.1234
rradius 133.556
rwrist -17.863
rhand -13.5084 35.189
rfingers 7.12502
rthumb 12.6031 5.5892
lclavicle 2.0276e-014 4.77083e-015
lhumerus -69.9717 -1.87829 96.3804
lradius 108.498
lwrist 35.2139
lhand -21.4022 3.61697
lfingers 7.12502
lthumb 4.98601 33.5383
rfemur 14.7835 6.58331 32.9605
rtibia 30.4807
rfoot 21.4612 -3.22177
rtoes 14.0879
lfemur -40.7655 0.102082 -18.2214
ltibia 58.075
lfoot -2.15557 -5.51835
ltoes -20.0339
61
root -0.302117 18.6792 3.85063 4.93763 0.578425 -4.10241
lowerback 12.373 2.28569 7.41635
upperback -2.17189 4.35488 1.55622
thorax -8.88162 1.76066 -3.34843
lowerneck -19.3038 -4.99884 -0.926148
upperneck 10.9191 -6.87653 2.51836
head 6.58028 -3.12909 0.198005
rclavicle -1.59525e-014 -3.18055e-015
rhumerus -31.2646 21.1956 -91.856
rradius 133.028
rwrist -18.6319
rhand -11.0205 34.0512
rfingers 7.12502
rthumb 15.0007 4.61455
lclavicle -1.59525e-014 -3.18055e-015
lhumerus -70.4002 -1.06572 95.9873
lradius 109.011
lwrist 35.1891
lhand -21.7632 4.23104
lfingers 7.12502
lthumb 4.63746 34.1603
rfemur 15.0318 7.89968 33.4621
rtibia 32.3693
rfoot 20.5808 -5.11451
rtoes 14.8197
lfemur -40.0332 -0.520238 -18.4727
ltibia 53.0667
lfoot -1.7058 -6.55381
ltoes -20.1435
62
root -0.31292 18.7176 4.39283 4.90543 0.766087 -4.10514
lowerback 12.3258 2.41376 7.19171
upperback -2.15106 4.48458 1.55351
thorax -8.8324 1.83776 -3.2466
lowerneck -19.5901 -5.05231 -0.910463
upperneck 11.1625 -6.96605 2.55686
head 6.70843 -3.16036 0.187365
rclavicle -4.48259e-014 -9.14409e-015
rhumerus -31.372 21.3613 -91.5296
rradius 132.126
rwrist -19.245
rhand -10.6279 37.0622
rfingers 7.12502
rthumb 15.379 7.65415
lclavicle -4.48259e-014 -9.14409e-015
lhumerus -70.3881 -0.569488 95.6744
lradius 109.424
lwrist 35.2908
lhand -21.5417 4.24408
lfingers 7.12502
lthumb 4.85128 34.1685
rfemur 15.1478 8.98253 34.223
rtibia 34.6511
rfoot 19.0609 -7.19888
rtoes 16.3524
lfemur -38.9954 -1.04499 -18.4027
ltibia 48.4101
lfoot -1.08012 -7.40194
ltoes -18.4732
63
root -0.322926 18.7308 4.92615 4.82111 1.1926 -4.44022
lowerback 12.2149 2.36955 7.27006
upperback -1.99467 4.43291 1.73688
thorax -8.61215 1.82723 -3.07335
lowerneck -20.1852 -4.98146 -1.11377
upperneck 11.5019 -6.86613 2.81236
head 6.93189 -3.08425 0.294639
rclavicle -2.89729e-014 -2.78299e-015
rhumerus -31.3816 21.6326 -91.1574
rradius 130.891
rwrist -19.5474
rhand -10.0693 43.745
rfingers 7.12502
rthumb 15.9169 14.3791
lclavicle -2.89729e-014 -2.78299e-015
lhumerus -70.1848 0.0593522 95.4832
lradius 109.98
lwrist 35.1425
lhand -21.3247 3.99704
lfingers 7.12502
lthumb 5.06087 33.9166
rfemur 15.0421 9.38695 35.1623
rtibia 37.2391
rfoot 18.1997 -8.32822
rtoes 17.1045
lfemur -38.0353 -1.71783 -17.9669
ltibia 43.8753
lfoot 0.00413257 -8.31256
ltoes -16.724
64
root -0.326915 18.7267 5.46455 4.65483 1.57672 -4.65431
lowerback 12.2131 2.30701 7.24399
upperback -1.95532 4.35627 1.88905
thorax -8.59017 1.7976 -2.88164
lowerneck -20.226 -4.90919 -1.07437
upperneck 11.4437 -6.78173 2.84252
head 6.91784 -3.03949 0.30819
rclavicle 1.73937e-014 -4.92986e-014
rhumerus -31.8527 21.9143 -91.0928
rradius 129.618
rwrist -19.546
rhand -9.75501 53.5118
rfingers 7.12502
rthumb 16.2196 24.1703
lclavicle 1.73937e-014 -4.92986e-014
lhumerus -70.1239 0.753564 95.39
lradius 110.486
lwrist 34.7374
lhand -19.6976 2.76252
lfingers 7.12502
lthumb 6.6318 32.6387
rfemur 14.9059 9.56832 35.8182
rtibia 40.0553
rfoot 17.9028 -9.03023
rtoes 18.7612
lfemur -37.0438 -2.55236 -17.6606
ltibia 39.8007
lfoot 1.04904 -8.70476
ltoes -14.8018
65
root -0.33102 18.7174 6.00501 4.48097 2.04545 -4.77442
lowerback 12.2867 2.28054 7.18685
upperback -1.98007 4.33063 1.99436
thorax -8.67487 1.78692 -2.73793
lowerneck -20.0741 -4.99724 -0.963495
upperneck 11.2247 -6.8903 2.64347
head 6.81148 -3.11089 0.2203
rclavicle 2.53947e-014 3.06128e-014
rhumerus -32.4553 21.8896 -90.9943
rradius 128.162
rwrist -19.249
rhand -22.0629 69.7393
rfingers 7.12502
rthumb 4.34799 39.8039
lclavicle 2.53947e-014 3.06128e-014
lhumerus -70.0605 1.11472 95.5147
lradius 110.901
lwrist 34.4205
lhand -21.2295 3.93632
lfingers 7.12502
lthumb 5.15276 33.8537
rfemur 14.574 9.64158 36.3603
rtibia 43.1625
rfoot 17.5953 -9.60247
rtoes 23.072
lfemur -35.9786 -3.26837 -17.5628
ltibia 36.2063
lfoot 1.57559 -8.66483
ltoes -15.2918
